<svg xmlns="http://www.w3.org/2000/svg"
 xmlns:xlink="http://www.w3.org/1999/xlink"
 width="154px" height="86px"  viewBox="0 0 154 86">
<path fill-rule="evenodd"  fill="$color_svg$"
 d="M146.23744,15.692825 C146.23744,15.692825 81.40933,7.751343 81.40933,7.751343 C80.29291,7.6141586 78.684204,7.5355606 77.00029,7.5355606 C75.31563,7.5355606 73.7079,7.6141586 72.59042,7.751343 C72.59042,7.751343 7.7396774,15.696304 7.7396774,15.696304 C7.667862,15.726471 7.493622,15.924271 7.470909,16.026657 C7.470909,16.026657 7.4727783,70.09143 7.4727783,70.09143 C7.4917526,70.16974 7.66436,70.364655 7.760521,70.39656 C7.760521,70.39656 72.59042,78.33745 72.59042,78.33745 C73.70978,78.47551 75.31831,78.5544 77.00029,78.5544 C78.68242,78.5544 80.290146,78.47551 81.40933,78.33745 C81.40933,78.33745 146.26016,70.39307 146.26016,70.39307 C146.3345,70.364655 146.5089,70.16974 146.52974,70.06853 C146.52974,70.06853 146.52795,15.99736 146.52795,15.99736 C146.50809,15.921371 146.33368,15.724152 146.23744,15.692825 ZM146.92462,10.262474 C146.92462,10.262474 82.07568,2.3166428 82.07568,2.3166428 C79.28427,1.9744034 74.71637,1.9744034 71.92407,2.3166428 C71.92407,2.3166428 7.074234,10.262474 7.074234,10.262474 C4.283806,10.603561 1.9979401,13.187492 1.9979401,15.99736 C1.9979401,15.99736 1.9979401,37.93222 1.9979401,37.93222 C1.9979401,40.743546 1.9979401,45.344673 1.9979401,48.159477 C1.9979401,48.159477 1.9979401,70.09143 1.9979401,70.09143 C1.9979401,72.905365 4.283806,75.485245 7.074234,75.826904 C7.074234,75.826904 71.92407,83.773605 71.92407,83.773605 C74.71637,84.114395 79.28427,84.114395 82.07568,83.773605 C82.07568,83.773605 146.92462,75.826904 146.92462,75.826904 C149.7188,75.485245 152.00279,72.905365 152.00279,70.09143 C152.00279,70.09143 152.00279,48.159477 152.00279,48.159477 C152.00279,45.344673 152.00279,40.743546 152.00279,37.93222 C152.00279,37.93222 152.00279,15.99736 152.00279,15.99736 C152.00279,13.187492 149.7188,10.603561 146.92462,10.262474 ZM147.34859,70.09143 C147.34859,70.556656 146.82123,71.15152 146.36096,71.20807 C146.36096,71.20807 81.50835,79.15303 81.50835,79.15303 C80.3582,79.29457 78.71515,79.37607 77.00029,79.37607 C75.28549,79.37607 73.64073,79.29457 72.489624,79.15303 C72.489624,79.15303 7.6398544,71.20807 7.6398544,71.20807 C7.1777115,71.15152 6.652153,70.556656 6.652153,70.09143 C6.652153,70.09143 6.652153,15.99736 6.652153,15.99736 C6.652153,15.542007 7.1887054,14.937279 7.6398544,14.882172 C7.6398544,14.882172 72.489624,6.9363403 72.489624,6.9363403 C73.64073,6.7948074 75.28549,6.715042 77.00029,6.715042 C78.71515,6.715042 80.3582,6.7948074 81.510056,6.9363403 C81.510056,6.9363403 146.35828,14.882172 146.35828,14.882172 C146.82025,14.938438 147.34859,15.532722 147.34859,15.99736 C147.34859,15.99736 147.34859,70.09143 147.34859,70.09143 ZM130.15643,37.077194 C129.63176,37.38057 129.04277,37.532265 128.38995,37.532265 C127.36397,37.532265 126.55946,37.2341 125.97658,36.639816 C125.39337,36.045242 125.10205,35.264465 125.10205,34.296326 C125.10205,33.43347 125.38466,32.678795 125.95029,32.031433 C126.515656,31.384361 127.212204,30.944672 128.04016,30.71119 C127.65546,30.431015 127.1772,30.291504 126.606125,30.291504 C125.06712,30.291504 123.988556,31.110573 123.37065,32.748695 C122.75252,34.387108 122.44377,36.325424 122.44377,38.56363 C122.44377,40.861008 122.8779,42.49594 123.74664,43.46959 C124.61508,44.442955 125.6732,44.929924 126.92088,44.929924 C128.65807,44.929924 130.10391,44.131454 131.25829,42.533646 C131.25829,42.533646 131.87033,42.761032 131.87033,42.761032 C131.54384,43.810677 131.05719,44.79593 130.41006,45.71679 C129.76294,46.638237 128.9322,47.390015 127.91788,47.972984 C126.90338,48.555664 125.72565,48.847443 124.38507,48.847443 C121.77312,48.847443 119.68045,48.069275 118.106445,46.51265 C116.53244,44.956024 115.745346,42.47535 115.745346,39.07119 C115.745346,36.855606 116.14171,35.013298 116.93465,33.544266 C117.72743,32.074944 118.81471,30.991364 120.19641,30.291504 C121.57811,29.591942 123.166534,29.241867 124.96208,29.241867 C125.941574,29.241867 126.84215,29.344536 127.664246,29.548141 C128.48627,29.752037 129.15953,30.01133 129.6842,30.32602 C130.34883,30.71119 130.87358,31.227165 131.25829,31.874237 C131.64308,32.5216 131.83548,33.24727 131.83548,34.051826 C131.83548,34.704407 131.68665,35.29637 131.38937,35.82656 C131.09203,36.357323 130.6811,36.77411 130.15643,37.077194 ZM105.92041,48.33988 C105.92041,48.33988 105.92041,47.588104 105.92041,47.588104 C106.55002,47.588104 106.86488,47.227013 106.86488,46.503372 C106.86488,46.31717 106.84746,46.107468 106.81236,45.874283 C106.74242,45.431686 106.605316,44.83972 106.40143,44.09897 C106.197235,43.358795 105.94948,42.62124 105.65816,41.886864 C105.36659,41.151917 105.05751,40.581123 104.73126,40.172462 C104.218,39.485077 103.4252,39.1408 102.35266,39.1408 C102.10776,39.1408 101.92114,39.146606 101.792984,39.158493 C101.792984,39.158493 101.792984,45.017517 101.792984,45.017517 C101.792984,45.6817 101.85698,46.200867 101.98546,46.574142 C102.11354,46.94713 102.32344,47.20961 102.61508,47.360718 C102.90633,47.512405 103.30284,47.588104 103.804306,47.588104 C103.804306,47.588104 103.804306,48.33988 103.804306,48.33988 C101.052475,48.24678 99.26277,48.20037 98.43506,48.20037 C97.6071,48.20037 95.91072,48.24678 93.345825,48.33988 C93.345825,48.33988 93.345825,47.588104 93.345825,47.588104 C93.84697,47.588104 94.24339,47.512405 94.53505,47.360718 C94.82637,47.20961 95.036194,46.94713 95.16467,46.574142 C95.292816,46.200867 95.35698,45.6817 95.35698,45.017517 C95.35698,45.017517 95.35698,33.12458 95.35698,33.12458 C95.35698,32.44851 95.292816,31.923828 95.16467,31.550842 C95.036194,31.177567 94.82637,30.915085 94.53505,30.763397 C94.24339,30.61258 93.84697,30.5363 93.345825,30.5363 C93.345825,30.5363 93.345825,29.784523 93.345825,29.784523 C96.097336,29.877335 97.91048,29.924034 98.78493,29.924034 C99.56598,29.924034 101.23909,29.877335 103.804306,29.784523 C103.804306,29.784523 103.804306,30.5363 103.804306,30.5363 C103.30284,30.5363 102.90633,30.61258 102.61508,30.763397 C102.32344,30.915085 102.11354,31.177567 101.98546,31.550842 C101.85698,31.923828 101.792984,32.44851 101.792984,33.12458 C101.792984,33.12458 101.792984,38.51113 101.792984,38.51113 C102.72565,38.453415 103.43979,38.278526 103.93538,37.986458 C104.43083,37.69526 104.8069,37.2779 105.063385,36.735825 C105.31976,36.19432 105.58211,35.381065 105.850464,34.296326 C106.16531,32.990585 106.459564,32.007942 106.7337,31.349846 C107.00745,30.691177 107.41846,30.175491 107.966644,29.801926 C108.5146,29.42865 109.30153,29.241867 110.32767,29.241867 C111.691864,29.241867 112.711975,29.553947 113.38832,30.1781 C114.06435,30.801392 114.40265,31.638145 114.40265,32.68721 C114.40265,33.713646 114.10539,34.518204 113.51077,35.10089 C112.91609,35.68386 112.15228,35.97564 111.219696,35.97564 C110.68323,35.97564 110.14984,35.87934 109.6194,35.68676 C109.0887,35.49447 108.64276,35.17978 108.281494,34.74269 C107.91983,34.30532 107.73932,33.742935 107.73932,33.05497 C107.73932,32.4952 107.91121,31.938332 108.2552,31.384361 C108.599045,30.830978 109.12094,30.3675 109.82042,29.993927 C109.02756,30.040916 108.44165,30.236397 108.06288,30.579803 C107.68379,30.92437 107.41846,31.329254 107.26709,31.795341 C107.11557,32.262306 106.83565,33.29947 106.42766,34.908302 C106.18274,35.864845 105.91739,36.60502 105.63193,37.129982 C105.34607,37.654366 104.923584,38.068245 104.36391,38.371338 C104.9818,38.301727 105.54718,38.266052 106.06036,38.266052 C108.39223,38.266052 110.10034,38.890793 111.18469,40.137947 C111.51094,40.522537 111.773285,40.94831 111.97162,41.414978 C112.16971,41.881065 112.41463,42.560036 112.70619,43.452187 C112.99751,44.343758 113.25415,45.06392 113.47569,45.61209 C113.755615,46.31166 114.01184,46.79834 114.24519,47.07242 C114.47838,47.346214 114.828156,47.517914 115.2946,47.588104 C115.2946,47.588104 115.2946,48.33988 115.2946,48.33988 C113.289154,48.24678 111.91919,48.20037 111.18469,48.20037 C110.42667,48.20037 108.672,48.24678 105.92041,48.33988 ZM75.970245,37.51863 C75.72647,37.678436 75.70358,38.043304 75.882065,38.117554 C78.168335,39.06829 75.05931,40.25309 74.59465,42.13833 C74.26784,43.46408 76.340866,42.995094 76.711,43.039757 C77.42636,43.12677 78.14766,43.744255 78.64513,43.46988 C79.2224,43.152 78.86569,42.614853 78.90967,42.23404 C78.95331,41.855827 79.31995,42.048126 79.42122,42.50464 C79.52226,42.96116 79.39044,43.29905 79.191864,43.628822 C79.08879,43.80052 78.51462,43.87622 78.05133,43.893913 C78.04938,43.893623 78.047424,43.895073 78.04555,43.893913 C77.61981,43.749763 77.083984,43.593727 76.67575,43.570526 C76.62697,43.567337 76.579666,43.564728 76.53464,43.565018 C75.85927,43.578354 75.60573,43.97368 75.60573,43.97368 C75.044815,43.886665 74.580734,43.97426 74.22655,44.203964 C74.22655,44.203964 74.22655,33.68406 74.22655,33.68406 C74.22655,32.576706 74.07478,31.77533 73.77182,31.279663 C73.46854,30.783989 72.94989,30.5363 72.21524,30.5363 C72.21524,30.5363 72.21524,29.784523 72.21524,29.784523 C72.96129,29.854134 73.701965,29.889229 74.43645,29.889229 C76.919846,29.889229 78.99507,29.725647 80.66255,29.399643 C80.66255,29.399643 80.66255,30.29847 80.66255,30.29847 C77.44826,31.653519 77.484406,35.328278 75.970245,37.51863 ZM70.156204,48.27868 C69.40991,48.483444 68.512085,48.58496 67.46283,48.58496 C66.2036,48.58496 65.27948,48.331757 64.690735,47.824196 C64.1019,47.317215 63.79593,46.666954 63.772644,45.874283 C63.271255,46.70205 62.565918,47.360718 61.65645,47.850586 C60.746994,48.33988 59.74414,48.58496 58.648315,48.58496 C57.23738,48.58496 56.1326,48.211975 55.33403,47.465714 C54.53546,46.719734 54.136185,45.722595 54.136185,44.47486 C54.136185,43.250908 54.503387,42.23085 55.23796,41.414978 C55.97252,40.598526 57.12079,39.93376 58.683395,39.420975 C59.953964,38.96591 60.895752,38.60771 61.507782,38.34494 C62.11998,38.08304 62.632843,37.76777 63.04669,37.40087 C63.460632,37.0334 63.667694,36.599213 63.667694,36.09774 C63.667694,36.09774 63.667694,32.897194 63.667694,32.897194 C63.667694,32.139328 63.478058,31.46006 63.09938,30.859978 C62.72029,30.259605 62.023743,29.95942 61.009415,29.95942 C60.70604,29.95942 60.382553,30.017715 60.038635,30.134308 C59.69464,30.25061 59.38858,30.39679 59.120544,30.571396 C60.71776,31.16626 61.51657,32.244614 61.51657,33.806747 C61.51657,34.366516 61.373596,34.873497 61.08806,35.328278 C60.802277,35.78276 60.397217,36.14444 59.87262,36.41301 C59.347946,36.680717 58.747147,36.814713 58.071213,36.814713 C57.488083,36.814713 56.97505,36.67811 56.53221,36.403732 C56.088867,36.129936 55.745117,35.75405 55.50029,35.27578 C55.255463,34.7978 55.13301,34.267326 55.13301,33.68406 C55.13301,32.96158 55.33403,32.32321 55.736404,31.769241 C56.138626,31.215271 56.67778,30.757599 57.35414,30.39679 C58.858215,29.626747 60.77028,29.241867 63.0905,29.241867 C64.454605,29.241867 65.60907,29.373253 66.553375,29.635445 C67.49785,29.897926 68.290634,30.3675 68.93181,31.043282 C69.3981,31.53286 69.7101,32.15383 69.86757,32.90589 C70.02504,33.65767 70.10368,34.710503 70.10368,36.062935 C70.10368,36.062935 70.10368,45.647186 70.10368,45.647186 C70.10368,46.21826 70.14432,46.617935 70.22606,46.84474 C70.30748,47.07242 70.44745,47.18583 70.64586,47.18583 C70.83223,47.18583 71.004364,47.14232 71.16174,47.054733 C71.319214,46.96714 71.52031,46.836624 71.76515,46.661148 C71.76515,46.661148 72.11493,47.273415 72.11493,47.273415 C71.55524,47.73979 70.90225,48.074783 70.156204,48.27868 ZM63.667694,37.566772 C63.49272,37.85884 63.02643,38.383224 62.26848,39.1408 C61.102554,40.271942 60.519592,41.618584 60.519592,43.181007 C60.519592,44.871628 61.12584,45.71679 62.3385,45.71679 C62.839645,45.71679 63.282974,45.5187 63.667694,45.122215 C63.667694,45.122215 63.667694,37.566772 63.667694,37.566772 ZM40.21434,48.33988 C40.21434,48.33988 40.21434,47.6232 40.21434,47.6232 C41.076996,47.588104 41.703674,47.494713 42.09442,47.343605 C42.484818,47.191917 42.752945,46.912033 42.898926,46.503372 C43.044586,46.09587 43.117615,45.443 43.117615,44.545044 C43.117615,44.545044 43.117615,26.198807 43.117615,26.198807 C43.117615,26.198807 34.477905,48.305367 34.477905,48.305367 C34.477905,48.305367 33.90071,48.305367 33.90071,48.305367 C33.90071,48.305367 23.809608,25.307236 23.809608,25.307236 C23.809608,25.307236 23.809608,41.327095 23.809608,41.327095 C23.809608,43.087616 23.87947,44.352753 24.019516,45.122215 C24.159393,45.891685 24.47416,46.46016 24.963821,46.82734 C25.45356,47.194527 26.275497,47.459618 27.42987,47.6232 C27.42987,47.6232 27.42987,48.33988 27.42987,48.33988 C26.473671,48.27027 25.132767,48.235176 23.407234,48.235176 C22.148071,48.235176 21.156952,48.27027 20.434181,48.33988 C20.434181,48.33988 20.434181,47.6232 20.434181,47.6232 C21.180237,47.459618 21.731041,47.20323 22.086845,46.853737 C22.442406,46.503372 22.681618,45.969994 22.80391,45.25331 C22.926285,44.536346 22.98751,43.46669 22.98751,42.044067 C22.98751,42.044067 22.98751,26.776558 22.98751,26.776558 C22.98751,25.878609 22.923439,25.225739 22.795204,24.817078 C22.666718,24.409286 22.430763,24.129105 22.086845,23.977997 C21.742928,23.8266 21.191963,23.732918 20.434181,23.698112 C20.434181,23.698112 20.434181,22.981148 20.434181,22.981148 C21.156952,23.05075 22.148071,23.085846 23.407234,23.085846 C26.287056,23.085846 28.758965,23.05075 30.822716,22.981148 C30.822716,22.981148 37.59099,38.19644 37.59099,38.19644 C37.59099,38.19644 43.467316,23.085846 43.467316,23.085846 C43.467316,23.085846 46.580414,23.085846 46.580414,23.085846 C49.343643,23.085846 51.459747,23.05075 52.92888,22.981148 C52.92888,22.981148 52.92888,23.698112 52.92888,23.698112 C52.159378,23.732918 51.605484,23.8266 51.267426,23.977997 C50.929123,24.129105 50.699036,24.40609 50.57666,24.808372 C50.45421,25.211235 50.392975,25.866714 50.392975,26.776558 C50.392975,26.776558 50.392975,44.545044 50.392975,44.545044 C50.392975,45.443 50.45421,46.09587 50.57666,46.503372 C50.699036,46.912033 50.93222,47.191917 51.27623,47.343605 C51.61998,47.494713 52.170868,47.588104 52.92888,47.6232 C52.92888,47.6232 52.92888,48.33988 52.92888,48.33988 C51.459747,48.27027 49.343643,48.235176 46.580414,48.235176 C43.700424,48.235176 41.57846,48.27027 40.21434,48.33988 ZM77.14725,54.67108 C76.90755,54.67108 76.660675,54.67717 76.417404,54.67978 C75.16223,52.133842 74.688126,50.37332 78.692184,48.88109 C79.25049,49.77208 79.903305,50.41915 80.66255,50.792137 C80.66255,50.792137 80.66255,51.138443 80.66255,51.138443 C80.66255,52.245796 80.91609,53.01236 81.42334,53.438133 C81.93051,53.863907 82.702774,54.076797 83.74072,54.076797 C83.74072,54.076797 83.74072,54.828857 83.74072,54.828857 C83.367325,54.81697 82.50769,54.787674 81.16101,54.741272 C79.814316,54.69429 78.476425,54.67108 77.14725,54.67108 ZM82.04344,47.754585 C83.19487,47.71311 84.056625,47.094757 84.63048,45.902122 C84.65433,45.95897 84.68494,46.02191 84.72972,46.090363 C85.09473,44.279953 86.87416,43.806618 86.70505,42.66358 C86.70465,42.66445 85.99075,43.238144 85.337204,43.472786 C85.43938,42.870377 85.515594,42.201263 85.56673,41.467766 C86.2439,40.841866 86.70709,39.991768 86.21124,38.15497 C86.21124,38.15497 85.64334,38.689796 85.64334,38.689796 C85.63219,37.025566 85.550674,35.649345 85.39435,34.581146 C85.869934,33.26989 86.2439,32.264915 89.76213,30.627663 C89.11076,31.379433 89.25391,31.429901 89.21539,32.023026 C89.88907,31.81681 90.277756,31.623062 90.53325,31.43077 C90.92285,31.947906 91.260666,32.552917 91.54083,33.255966 C92.07698,34.602608 92.34517,36.261032 92.34517,38.231537 C92.34517,42.02086 91.578445,44.737343 90.04547,46.381264 C88.512085,48.025482 86.49783,48.847443 84.002975,48.847443 C83.47862,48.847443 83.01079,48.80597 82.570465,48.744484 C82.36122,48.46982 82.166626,48.17398 82.04344,47.754585 ZM77.710434,37.772697 C78.27312,37.708603 78.66533,37.709473 79.03317,37.51863 C79.61664,37.21525 80.152695,37.098946 80.66255,37.099525 C80.66255,37.099525 80.66255,37.746307 80.66255,37.746307 C80.41397,37.793297 80.13626,37.86551 79.66231,37.83709 C79.555405,38.17324 79.471054,38.501274 79.73274,38.75447 C80.1093,38.721703 80.40144,38.72808 80.66255,38.749542 C80.66255,38.749542 80.66255,39.274796 80.66255,39.274796 C80.31554,39.26523 79.94997,39.29191 79.62689,39.422714 C79.51477,39.94072 79.781586,40.10285 80.15613,40.377518 C78.654495,40.536453 78.81888,39.085114 78.1514,38.881508 C77.60475,38.692116 77.83354,38.111755 77.710434,37.772697 ZM80.66255,46.350525 C80.66255,46.350525 80.66255,46.36444 80.66255,46.36444 C79.87384,46.088913 79.1216,45.578735 78.03961,44.88613 C77.64815,44.51053 77.861145,44.16336 78.23363,44.074318 C78.95314,44.512276 80.10214,45.61064 80.66255,46.350525 ZM78.02194,47.612762 C78.17981,47.969505 78.34494,48.302467 78.5217,48.6099 C77.7767,48.521156 77.4691,48.287094 76.87555,48.148453 C76.17883,48.208206 75.51723,48.186745 75.08269,47.655106 C75.080246,47.656555 75.079025,47.659164 75.07674,47.660614 C75.07674,47.660614 74.93564,46.127777 74.93564,46.127777 C75.46503,46.89173 76.49719,47.387398 78.02194,47.612762 ZM74.9827,47.71891 C74.723694,47.874664 74.47276,48.042015 74.22655,48.215454 C74.22655,48.215454 74.22655,47.37812 74.22655,47.37812 C74.42758,47.515594 74.673386,47.632774 74.9827,47.71891 ZM115.87138,63.162476 C115.87138,63.162476 115.117355,63.162476 115.117355,63.162476 C115.117355,63.162476 113.28288,60.987198 113.28288,60.987198 C113.28288,60.987198 112.992874,61.32045 112.992874,61.32045 C112.992874,61.32045 112.992874,63.162476 112.992874,63.162476 C112.992874,63.162476 112.3911,63.162476 112.3911,63.162476 C112.3911,63.162476 112.3911,61.32045 112.3911,61.32045 C112.3911,61.32045 112.101074,60.987198 112.101074,60.987198 C112.101074,60.987198 110.2666,63.162476 110.2666,63.162476 C110.2666,63.162476 109.51973,63.162476 109.51973,63.162476 C109.51973,63.162476 111.70944,60.62436 111.70944,60.62436 C111.70944,60.62436 109.693726,58.32611 109.693726,58.32611 C109.693726,58.32611 110.447845,58.32611 110.447845,58.32611 C110.447845,58.32611 112.3911,60.602615 112.3911,60.602615 C112.3911,60.602615 112.3911,58.32611 112.3911,58.32611 C112.3911,58.32611 112.992874,58.32611 112.992874,58.32611 C112.992874,58.32611 112.992874,60.602615 112.992874,60.602615 C112.992874,60.602615 114.94328,58.32611 114.94328,58.32611 C114.94328,58.32611 115.69748,58.32611 115.69748,58.32611 C115.69748,58.32611 113.67444,60.62436 113.67444,60.62436 C113.67444,60.62436 115.87138,63.162476 115.87138,63.162476 ZM33.985474,61.965485 C33.985474,61.965485 35.49362,58.32611 35.49362,58.32611 C35.49362,58.32611 36.356506,58.32611 36.356506,58.32611 C36.356506,58.32611 36.356506,63.162476 36.356506,63.162476 C36.356506,63.162476 35.754654,63.162476 35.754654,63.162476 C35.754654,63.162476 35.754654,59.181717 35.754654,59.181717 C35.754654,59.181717 34.108826,63.162476 34.108826,63.162476 C34.108826,63.162476 33.86229,63.162476 33.86229,63.162476 C33.86229,63.162476 32.22354,59.181717 32.22354,59.181717 C32.22354,59.181717 32.22354,63.162476 32.22354,63.162476 C32.22354,63.162476 31.621857,63.162476 31.621857,63.162476 C31.621857,63.162476 31.621857,58.32611 31.621857,58.32611 C31.621857,58.32611 32.48459,58.32611 32.48459,58.32611 C32.48459,58.32611 33.985474,61.965485 33.985474,61.965485 ZM39.822067,58.32611 C39.822067,58.32611 41.772476,63.162476 41.772476,63.162476 C41.772476,63.162476 41.08383,63.162476 41.08383,63.162476 C41.08383,63.162476 40.655975,62.08905 40.655975,62.08905 C40.655975,62.08905 38.248703,62.08905 38.248703,62.08905 C38.248703,62.08905 37.820923,63.162476 37.820923,63.162476 C37.820923,63.162476 37.132034,63.162476 37.132034,63.162476 C37.132034,63.162476 39.075287,58.32611 39.075287,58.32611 C39.075287,58.32611 39.822067,58.32611 39.822067,58.32611 ZM40.47464,61.552765 C40.47464,61.552765 39.45233,58.9494 39.45233,58.9494 C39.45233,58.9494 38.422775,61.552765 38.422775,61.552765 C38.422775,61.552765 40.47464,61.552765 40.47464,61.552765 ZM46.00673,59.783554 C46.00673,60.5739 45.4485,61.240692 44.491257,61.240692 C44.491257,61.240692 43.14995,61.240692 43.14995,61.240692 C43.14995,61.240692 43.14995,63.162476 43.14995,63.162476 C43.14995,63.162476 42.548172,63.162476 42.548172,63.162476 C42.548172,63.162476 42.548172,58.32611 42.548172,58.32611 C42.548172,58.32611 44.491257,58.32611 44.491257,58.32611 C45.462845,58.32611 46.00673,58.993195 46.00673,59.783554 ZM43.14995,58.862396 C43.14995,58.862396 43.14995,60.704117 43.14995,60.704117 C43.14995,60.704117 44.418793,60.704117 44.418793,60.704117 C44.99167,60.704117 45.38321,60.327072 45.38321,59.783554 C45.38321,59.23944 44.99167,58.862396 44.418793,58.862396 C44.418793,58.862396 43.14995,58.862396 43.14995,58.862396 ZM47.550934,60.827103 C47.550934,60.827103 49.68991,58.32611 49.68991,58.32611 C49.68991,58.32611 50.44403,58.32611 50.44403,58.32611 C50.44403,58.32611 48.428314,60.62436 48.428314,60.62436 C48.428314,60.62436 50.618027,63.162476 50.618027,63.162476 C50.618027,63.162476 49.871155,63.162476 49.871155,63.162476 C49.871155,63.162476 48.036774,60.987198 48.036774,60.987198 C48.036774,60.987198 47.550934,61.53769 47.550934,61.53769 C47.550934,61.53769 47.550934,63.162476 47.550934,63.162476 C47.550934,63.162476 46.949158,63.162476 46.949158,63.162476 C46.949158,63.162476 46.949158,58.32611 46.949158,58.32611 C46.949158,58.32611 47.550934,58.32611 47.550934,58.32611 C47.550934,58.32611 47.550934,60.827103 47.550934,60.827103 ZM54.6203,58.862396 C54.6203,58.862396 52.053543,58.862396 52.053543,58.862396 C52.053543,58.862396 52.053543,60.42134 52.053543,60.42134 C52.053543,60.42134 54.569504,60.42134 54.569504,60.42134 C54.569504,60.42134 54.569504,60.95848 54.569504,60.95848 C54.569504,60.95848 52.053543,60.95848 52.053543,60.95848 C52.053543,60.95848 52.053543,62.62561 52.053543,62.62561 C52.053543,62.62561 54.6203,62.62561 54.6203,62.62561 C54.6203,62.62561 54.6203,63.162476 54.6203,63.162476 C54.6203,63.162476 51.451675,63.162476 51.451675,63.162476 C51.451675,63.162476 51.451675,58.32611 51.451675,58.32611 C51.451675,58.32611 54.6203,58.32611 54.6203,58.32611 C54.6203,58.32611 54.6203,58.862396 54.6203,58.862396 ZM59.057526,58.862396 C59.057526,58.862396 57.5204,58.862396 57.5204,58.862396 C57.5204,58.862396 57.5204,63.162476 57.5204,63.162476 C57.5204,63.162476 56.91855,63.162476 56.91855,63.162476 C56.91855,63.162476 56.91855,58.862396 56.91855,58.862396 C56.91855,58.862396 55.38858,58.862396 55.38858,58.862396 C55.38858,58.862396 55.38858,58.32611 55.38858,58.32611 C55.38858,58.32611 59.057526,58.32611 59.057526,58.32611 C59.057526,58.32611 59.057526,58.862396 59.057526,58.862396 ZM60.601654,62.103546 C60.601654,62.103546 63.38597,58.32611 63.38597,58.32611 C63.38597,58.32611 64.00232,58.32611 64.00232,58.32611 C64.00232,58.32611 64.00232,63.162476 64.00232,63.162476 C64.00232,63.162476 63.400467,63.162476 63.400467,63.162476 C63.400467,63.162476 63.400467,59.304703 63.400467,59.304703 C63.400467,59.304703 60.57991,63.162476 60.57991,63.162476 C60.57991,63.162476 59.999878,63.162476 59.999878,63.162476 C59.999878,63.162476 59.999878,58.32611 59.999878,58.32611 C59.999878,58.32611 60.601654,58.32611 60.601654,58.32611 C60.601654,58.32611 60.601654,62.103546 60.601654,62.103546 ZM65.880035,60.40654 C65.880035,60.40654 68.707825,60.40654 68.707825,60.40654 C68.707825,60.40654 68.707825,58.32611 68.707825,58.32611 C68.707825,58.32611 69.3096,58.32611 69.3096,58.32611 C69.3096,58.32611 69.3096,63.162476 69.3096,63.162476 C69.3096,63.162476 68.707825,63.162476 68.707825,63.162476 C68.707825,63.162476 68.707825,60.943405 68.707825,60.943405 C68.707825,60.943405 65.880035,60.943405 65.880035,60.943405 C65.880035,60.943405 65.880035,63.162476 65.880035,63.162476 C65.880035,63.162476 65.27826,63.162476 65.27826,63.162476 C65.27826,63.162476 65.27826,58.32611 65.27826,58.32611 C65.27826,58.32611 65.880035,58.32611 65.880035,58.32611 C65.880035,58.32611 65.880035,60.40654 65.880035,60.40654 ZM73.75398,58.862396 C73.75398,58.862396 71.1873,58.862396 71.1873,58.862396 C71.1873,58.862396 71.1873,63.162476 71.1873,63.162476 C71.1873,63.162476 70.58545,63.162476 70.58545,63.162476 C70.58545,63.162476 70.58545,58.32611 70.58545,58.32611 C70.58545,58.32611 73.75398,58.32611 73.75398,58.32611 C73.75398,58.32611 73.75398,58.862396 73.75398,58.862396 ZM77.18974,60.15103 C77.39159,60.036743 77.57852,59.956985 77.75098,59.912323 C77.51494,59.810806 77.33435,59.67653 77.20912,59.50888 C77.08406,59.341248 77.02162,59.164032 77.02162,58.97754 C77.02162,58.816864 77.068756,58.667786 77.16321,58.529724 C77.25749,58.391663 77.39688,58.28058 77.58089,58.197342 C77.764984,58.113525 77.98685,58.070892 78.24649,58.070892 C78.56973,58.070892 78.82124,58.144257 79.00061,58.290726 C79.090256,58.363815 79.1575,58.444458 79.20236,58.533493 C79.24724,58.62166 79.26955,58.70752 79.26955,58.789886 C79.26955,58.90561 79.22835,58.998413 79.145706,59.069473 C79.06314,59.140533 78.96869,59.17563 78.86252,59.17563 C78.75864,59.17563 78.66963,59.142853 78.595215,59.076447 C78.52089,59.010895 78.48367,58.922134 78.48367,58.81134 C78.48367,58.70752 78.519745,58.6176 78.59172,58.54219 C78.66362,58.46649 78.75635,58.42415 78.8696,58.41487 C78.848434,58.35077 78.78696,58.29596 78.68552,58.250122 C78.58406,58.20401 78.461365,58.18138 78.31734,58.18138 C78.06468,58.18138 77.86171,58.2565 77.70831,58.407623 C77.55499,58.55844 77.4783,58.771317 77.4783,59.04512 C77.4783,59.36792 77.601,59.643173 77.846405,59.86969 C78.01396,59.841843 78.16377,59.827347 78.29608,59.827347 C78.3858,59.827347 78.45648,59.841843 78.508514,59.86969 C78.560455,59.897827 78.58635,59.9393 78.58635,59.99353 C78.58635,60.035873 78.56802,60.0701 78.53146,60.094757 C78.4949,60.119125 78.445984,60.13159 78.38458,60.13159 C78.31375,60.13159 78.23819,60.118835 78.15808,60.092728 C78.07779,60.06691 78.01047,60.041397 77.95616,60.01674 C77.90193,59.99208 77.867645,59.977005 77.853485,59.972656 C77.22566,60.15886 76.91177,60.55504 76.91177,61.162094 C76.91177,61.485474 76.99678,61.764786 77.1667,62.00116 C77.336716,62.23697 77.56909,62.417084 77.86415,62.540924 C78.15921,62.664764 78.48953,62.726837 78.855515,62.726837 C79.19992,62.726837 79.51755,62.673462 79.8078,62.565582 C80.09807,62.458557 80.3293,62.30368 80.50166,62.101807 C80.67395,61.89995 80.76018,61.66617 80.76018,61.399338 C80.76018,61.210236 80.7088,61.016205 80.60605,60.81665 C80.50354,60.61711 80.31163,60.460785 80.03082,60.34738 C79.60124,60.48224 79.322784,60.57419 79.19528,60.62349 C78.99231,60.701797 78.83525,60.790268 78.72443,60.88945 C78.61354,60.988358 78.558014,61.11017 78.558014,61.25403 C78.558014,61.37236 78.592865,61.475327 78.662476,61.563797 C78.732086,61.652542 78.8188,61.719543 78.92285,61.765656 C79.02658,61.811478 79.126816,61.834396 79.22362,61.834396 C79.30618,61.834396 79.39647,61.82077 79.494415,61.792053 C79.59238,61.763916 79.64725,61.72505 79.659134,61.67546 C79.56705,61.65892 79.48743,61.621216 79.42009,61.562057 C79.35283,61.503174 79.3192,61.417908 79.3192,61.306824 C79.3192,61.194 79.35707,61.10234 79.43254,61.03302 C79.5081,60.96283 79.60239,60.928314 79.71571,60.928314 C79.83142,60.928314 79.92465,60.96428 79.99539,61.03621 C80.06615,61.10872 80.101654,61.202988 80.101654,61.32132 C80.101654,61.451263 80.057846,61.563217 79.970566,61.65776 C79.883286,61.75203 79.772964,61.82338 79.63959,61.87181 C79.5063,61.920532 79.3723,61.94432 79.23779,61.94432 C79.0914,61.94432 78.949234,61.913574 78.81123,61.85208 C78.67305,61.791183 78.55972,61.696335 78.471375,61.569305 C78.3828,61.44168 78.3385,61.283615 78.3385,61.095093 C78.3385,60.849136 78.4218,60.64032 78.58821,60.467743 C78.75456,60.295456 79.005325,60.1519 79.34053,60.035873 C79.43483,60.005722 79.6172,59.951477 79.88736,59.87491 C80.15767,59.79805 80.389465,59.72931 80.583084,59.66812 C80.776535,59.60663 80.95241,59.539337 81.11061,59.465958 C81.339554,59.357483 81.50061,59.24727 81.59384,59.135315 C81.68706,59.02307 81.733795,58.90097 81.733795,58.768997 C81.733795,58.63414 81.69479,58.510574 81.61696,58.39862 C81.538956,58.286377 81.43564,58.1985 81.307236,58.13353 C81.17844,58.068268 81.03978,58.036087 80.8911,58.036087 C80.7684,58.036087 80.69635,58.05696 80.67517,58.099594 C80.73892,58.13266 80.78851,58.18022 80.82376,58.242874 C80.85927,58.305527 80.87694,58.36992 80.87694,58.436035 C80.87694,58.535233 80.83687,58.61847 80.756516,58.6875 C80.676315,58.75566 80.58072,58.789886 80.46976,58.789886 C80.36594,58.789886 80.27629,58.75856 80.20082,58.696487 C80.12518,58.63356 80.08748,58.5448 80.08748,58.428497 C80.08748,58.311035 80.127625,58.214157 80.207825,58.139038 C80.288025,58.06276 80.3889,58.00911 80.51062,57.975754 C80.63202,57.942688 80.756516,57.926163 80.88402,57.926163 C81.08464,57.926163 81.26514,57.965317 81.42563,58.044495 C81.58618,58.123962 81.71239,58.237366 81.804474,58.384995 C81.89656,58.532043 81.94264,58.70607 81.94264,58.90706 C81.94264,59.137924 81.879944,59.33922 81.75496,59.51062 C81.62982,59.681747 81.463394,59.81894 81.25578,59.92276 C81.08586,60.003113 80.72696,60.129272 80.17949,60.30185 C80.45087,60.414963 80.65091,60.578537 80.77963,60.792007 C80.9082,61.005768 80.97252,61.25171 80.97252,61.53015 C80.97252,61.829758 80.88336,62.112244 80.705215,62.37822 C80.52699,62.6436 80.270355,62.857925 79.93532,63.020645 C79.60002,63.18335 79.20831,63.264847 78.75986,63.264847 C78.33736,63.264847 77.94728,63.191177 77.58984,63.04384 C77.232254,62.89621 76.94672,62.685944 76.73299,62.41156 C76.5195,62.13777 76.412674,61.82077 76.412674,61.45938 C76.412674,61.140625 76.49173,60.871765 76.64986,60.652206 C76.80797,60.432648 76.987915,60.265594 77.18974,60.15103 ZM88.55882,63.162476 C88.55882,63.162476 87.95705,63.162476 87.95705,63.162476 C87.95705,63.162476 87.95705,58.862396 87.95705,58.862396 C87.95705,58.862396 85.12926,58.862396 85.12926,58.862396 C85.12926,58.862396 85.12926,63.162476 85.12926,63.162476 C85.12926,63.162476 84.52748,63.162476 84.52748,63.162476 C84.52748,63.162476 84.52748,58.32611 84.52748,58.32611 C84.52748,58.32611 88.55882,58.32611 88.55882,58.32611 C88.55882,58.32611 88.55882,63.162476 88.55882,63.162476 ZM93.293396,59.783554 C93.293396,60.5739 92.73509,61.240692 91.778,61.240692 C91.778,61.240692 90.43652,61.240692 90.43652,61.240692 C90.43652,61.240692 90.43652,63.162476 90.43652,63.162476 C90.43652,63.162476 89.83475,63.162476 89.83475,63.162476 C89.83475,63.162476 89.83475,58.32611 89.83475,58.32611 C89.83475,58.32611 91.778,58.32611 91.778,58.32611 C92.74959,58.32611 93.293396,58.993195 93.293396,59.783554 ZM90.43652,58.862396 C90.43652,58.862396 90.43652,60.704117 90.43652,60.704117 C90.43652,60.704117 91.70546,60.704117 91.70546,60.704117 C92.27817,60.704117 92.66971,60.327072 92.66971,59.783554 C92.66971,59.23944 92.27817,58.862396 91.70546,58.862396 C91.70546,58.862396 90.43652,58.862396 90.43652,58.862396 ZM96.44003,58.246353 C97.868454,58.246353 98.84004,59.3192 98.84004,60.747925 C98.84004,62.176056 97.868454,63.24948 96.44003,63.24948 C95.00427,63.24948 94.04001,62.176056 94.04001,60.747925 C94.04001,59.3192 95.00427,58.246353 96.44003,58.246353 ZM96.44003,62.71263 C97.52031,62.71263 98.216446,61.87181 98.216446,60.747925 C98.216446,59.616196 97.52031,58.78264 96.44003,58.78264 C95.35234,58.78264 94.66353,59.616196 94.66353,60.747925 C94.66353,61.87181 95.35234,62.71263 96.44003,62.71263 ZM100.43506,60.754593 C100.43506,60.754593 100.73241,58.32611 100.73241,58.32611 C100.73241,58.32611 103.69064,58.32611 103.69064,58.32611 C103.69064,58.32611 103.69064,62.62561 103.69064,62.62561 C103.69064,62.62561 104.132904,62.62561 104.132904,62.62561 C104.132904,62.62561 104.132904,64.05376 104.132904,64.05376 C104.132904,64.05376 103.53105,64.05376 103.53105,64.05376 C103.53105,64.05376 103.53105,63.162476 103.53105,63.162476 C103.53105,63.162476 99.92749,63.162476 99.92749,63.162476 C99.92749,63.162476 99.92749,64.05376 99.92749,64.05376 C99.92749,64.05376 99.32564,64.05376 99.32564,64.05376 C99.32564,64.05376 99.32564,62.676376 99.32564,62.676376 C99.90567,62.64041 100.231995,62.393295 100.43506,60.754593 ZM103.08887,62.62561 C103.08887,62.62561 103.08887,58.862396 103.08887,58.862396 C103.08887,58.862396 101.2688,58.862396 101.2688,58.862396 C101.2688,58.862396 101.02959,60.798386 101.02959,60.798386 C100.90633,61.82077 100.64537,62.35733 100.28998,62.62561 C100.28998,62.62561 103.08887,62.62561 103.08887,62.62561 ZM107.23599,58.32611 C107.23599,58.32611 109.1864,63.162476 109.1864,63.162476 C109.1864,63.162476 108.49759,63.162476 108.49759,63.162476 C108.49759,63.162476 108.06981,62.08905 108.06981,62.08905 C108.06981,62.08905 105.66255,62.08905 105.66255,62.08905 C105.66255,62.08905 105.23477,63.162476 105.23477,63.162476 C105.23477,63.162476 104.54596,63.162476 104.54596,63.162476 C104.54596,63.162476 106.489044,58.32611 106.489044,58.32611 C106.489044,58.32611 107.23599,58.32611 107.23599,58.32611 ZM107.888565,61.552765 C107.888565,61.552765 106.86618,58.9494 106.86618,58.9494 C106.86618,58.9494 105.83655,61.552765 105.83655,61.552765 C105.83655,61.552765 107.888565,61.552765 107.888565,61.552765 ZM117.299576,62.103546 C117.299576,62.103546 120.08382,58.32611 120.08382,58.32611 C120.08382,58.32611 120.700165,58.32611 120.700165,58.32611 C120.700165,58.32611 120.700165,63.162476 120.700165,63.162476 C120.700165,63.162476 120.09839,63.162476 120.09839,63.162476 C120.09839,63.162476 120.09839,59.304703 120.09839,59.304703 C120.09839,59.304703 117.277756,63.162476 117.277756,63.162476 C117.277756,63.162476 116.69763,63.162476 116.69763,63.162476 C116.69763,63.162476 116.69763,58.32611 116.69763,58.32611 C116.69763,58.32611 117.299576,58.32611 117.299576,58.32611 C117.299576,58.32611 117.299576,62.103546 117.299576,62.103546 Z"/>
</svg>